<?xml version="1.0" standalone="no"?>
<!DOCTYPE svg PUBLIC "-//W3C//DTD SVG 20010904//EN"
 "http://www.w3.org/TR/2001/REC-SVG-20010904/DTD/svg10.dtd">
<svg version="1.0" xmlns="http://www.w3.org/2000/svg"
 width="331.000000pt" height="331.000000pt" viewBox="0 0 331.000000 331.000000"
 preserveAspectRatio="xMidYMid meet">
<metadata>
Created by potrace 1.11, written by Peter Selinger 2001-2013
</metadata>
<g transform="translate(0.000000,331.000000) scale(0.100000,-0.100000)"
fill="#000000" stroke="none">
<path d="M1425 3273 c-229 -49 -316 -77 -455 -145 -560 -272 -900 -811 -901
-1428 0 -429 160 -815 465 -1123 247 -249 560 -406 911 -459 70 -10 282 -13
945 -13 l855 0 0 890 c0 875 0 892 -22 1000 -52 263 -167 510 -327 705 -61 74
-187 198 -246 243 -30 23 -57 45 -60 48 -17 19 -200 123 -280 158 -127 57
-190 77 -325 106 -103 23 -136 25 -327 24 -117 -1 -222 -3 -233 -6z m420 -649
c279 -47 542 -250 667 -514 89 -188 98 -274 98 -892 l0 -469 -562 3 c-555 4
-564 4 -638 27 -171 53 -316 138 -426 252 -124 128 -196 255 -245 429 -20 73
-23 107 -23 240 0 130 4 169 23 238 72 264 246 480 481 598 133 67 201 86 395
108 41 5 135 -3 230 -20z"/>
</g>
</svg>
