<svg xmlns="http://www.w3.org/2000/svg" xmlns:xlink="http://www.w3.org/1999/xlink" version="1.1" x="0px" y="0px" viewBox="0 0 100 100" enable-background="new 0 0 100 100" xml:space="preserve"><path d="M30.678,45.824h38.645c6.698,0,12.147-5.45,12.147-12.148c0-6.697-5.449-12.146-12.147-12.146H30.678  c-6.698,0-12.147,5.449-12.147,12.146C18.53,40.374,23.979,45.824,30.678,45.824z M30.678,25.529h38.645  c4.492,0,8.147,3.654,8.147,8.146c0,4.493-3.655,8.148-8.147,8.148H30.678c-4.492,0-8.147-3.655-8.147-8.148  C22.53,29.184,26.186,25.529,30.678,25.529z M30.217,38.514c2.668,0,4.838-2.17,4.838-4.838c0-2.667-2.17-4.836-4.838-4.836  c-2.667,0-4.837,2.169-4.837,4.836C25.38,36.344,27.55,38.514,30.217,38.514z M30.217,32.84c0.462,0,0.838,0.375,0.838,0.836  c0,0.462-0.376,0.838-0.838,0.838s-0.837-0.376-0.837-0.838C29.38,33.215,29.755,32.84,30.217,32.84z M69.322,54.176H30.678  c-6.698,0-12.147,5.45-12.147,12.148c0,6.697,5.449,12.146,12.147,12.146h38.645c6.698,0,12.147-5.449,12.147-12.146  C81.47,59.626,76.021,54.176,69.322,54.176z M69.322,74.471H30.678c-4.492,0-8.147-3.654-8.147-8.146  c0-4.493,3.655-8.148,8.147-8.148h38.645c4.492,0,8.147,3.655,8.147,8.148C77.47,70.816,73.814,74.471,69.322,74.471z   M69.783,61.486c-2.668,0-4.838,2.17-4.838,4.838c0,2.667,2.17,4.836,4.838,4.836c2.667,0,4.837-2.169,4.837-4.836  C74.62,63.656,72.45,61.486,69.783,61.486z M69.783,67.16c-0.462,0-0.838-0.375-0.838-0.836c0-0.462,0.376-0.838,0.838-0.838  s0.837,0.376,0.837,0.838C70.62,66.785,70.245,67.16,69.783,67.16z"></path></svg>