<svg fill="#32527C" xmlns="http://www.w3.org/2000/svg" xmlns:xlink="http://www.w3.org/1999/xlink" version="1.1" x="0px" y="0px" viewBox="0 0 136 136" style="enable-background:new 0 0 136 136;" xml:space="preserve"><g><path d="M99.2697144,66.538208c-17.8006592,0-32.230957,14.4302368-32.230957,32.230896   C67.0387573,116.5697021,81.4690552,131,99.2697144,131c17.8005371,0,32.230835-14.4302979,32.230835-32.230896   C131.5005493,80.9684448,117.0702515,66.538208,99.2697144,66.538208z M74.022644,98.7643433   c0-13.3682251,10.4462891-24.336853,23.6035156-25.1872559v25.2247925l-19.3374023,13.987915   C75.5963745,108.7753906,74.022644,103.9506226,74.022644,98.7643433z M99.2697144,124.0114136   c-8.0185547,0-15.1706543-3.762146-19.7988281-9.6090698l18.7392578-13.5549927l3.1945801,23.0671997   C100.7001343,123.973877,99.9894409,124.0114136,99.2697144,124.0114136z M103.3893433,123.6697998l-3.1931152-23.0653687   l22.6669922,7.1331177C119.7094116,116.0015869,112.3363647,122.1945801,103.3893433,123.6697998z M99.8927612,98.4117432   l-0.1572266-1.1356812l-0.109375,0.0791016V73.5267944c13.7565918,0.1921387,24.890625,11.4361572,24.890625,25.2375488   c0,2.456665-0.359375,4.8297119-1.0168457,7.0767212L99.8927612,98.4117432z"></path><rect x="19.8495483" y="92.789978" width="47.2399902" height="2"></rect><rect x="19.8495483" y="101.4500122" width="47.1899414" height="2"></rect><rect x="55.6195679" y="39.1900024" width="8.3498535" height="35.7799683"></rect><rect x="31.5995483" y="32.7799683" width="8.3499756" height="42.1900024"></rect><rect x="19.8495483" y="84.1300049" width="49.5" height="2"></rect><rect x="19.5895386" y="53.7299805" width="8.3499756" height="21.2399902"></rect><rect x="19.8495483" y="110.1099854" width="35.4299316" height="2"></rect><rect x="43.6095581" y="44.6199951" width="8.3499756" height="30.3499756"></rect><rect x="67.6295776" y="51.5599976" width="8.3498535" height="23.4099731"></rect><path d="M12.4877319,123.3341675V20.6030273h13.3518066v4.2069702h43.8898926v-4.2069702h13.3496094v48.0148926   c2.4945068-1.3449097,5.1749268-2.3850708,7.9904785-3.0800781V15.3099976H69.7294312v-0.6400146   c0-2.789978-2.2698975-5.0700073-5.0599365-5.0700073H56.069519c-0.9499512,0-1.7900391-0.5999756-2.1999512-1.5700073   C52.8295288,5.5799561,50.4395142,4,47.77948,4c-2.6599121,0-5.0500488,1.5799561-6.0799561,4.0299683   C41.2894897,9,40.4395142,9.5999756,39.4994507,9.5999756h-8.5998535c-2.7900391,0-5.0600586,2.2800293-5.0600586,5.0700073   v0.6400146H4.4994507V132h86.5690918c-5.9689941-1.4735107-11.3226318-4.5170288-15.6027832-8.6658325H12.4877319z"></path></g></svg>