<?xml version="1.0" encoding="UTF-8"?>
<svg width="77px" height="77px" viewBox="0 0 77 77" version="1.1" xmlns="http://www.w3.org/2000/svg" xmlns:xlink="http://www.w3.org/1999/xlink">
    <!-- Generator: Sketch 52.4 (67378) - http://www.bohemiancoding.com/sketch -->
    <title>noun_report_1858603_32527c</title>
    <desc>Created with Sketch.</desc>
    <defs>
        <filter x="-17.4%" y="-17.4%" width="134.8%" height="134.8%" filterUnits="objectBoundingBox" id="filter-1">
            <feOffset dx="0" dy="2" in="SourceAlpha" result="shadowOffsetOuter1"></feOffset>
            <feGaussianBlur stdDeviation="2" in="shadowOffsetOuter1" result="shadowBlurOuter1"></feGaussianBlur>
            <feColorMatrix values="0 0 0 0 0   0 0 0 0 0   0 0 0 0 0  0 0 0 0.5 0" type="matrix" in="shadowBlurOuter1" result="shadowMatrixOuter1"></feColorMatrix>
            <feMerge>
                <feMergeNode in="shadowMatrixOuter1"></feMergeNode>
                <feMergeNode in="SourceGraphic"></feMergeNode>
            </feMerge>
        </filter>
    </defs>
    <g id="menu" stroke="none" stroke-width="1" fill="none" fill-rule="evenodd">
        <g id="app-MENU" transform="translate(-272.000000, -230.000000)" fill="#FFFFFF">
            <g id="noun_report_1858603_32527c" filter="url(#filter-1)" transform="translate(276.000000, 232.000000)">
                <path d="M51.3563304,33.7120028 C41.7606626,33.7120028 33.9818302,41.4908023 33.9818302,51.0864701 C33.9818301,60.682105 41.7606626,68.4609375 51.3563304,68.4609375 C60.9519324,68.4609375 68.7307649,60.682105 68.7307649,51.0864701 C68.7307649,41.4908023 60.9519324,33.7120028 51.3563304,33.7120028 Z M37.7465815,51.0839038 C37.7465815,43.877595 43.3777842,37.964819 50.4703517,37.5063987 L50.4703517,51.1041384 L40.0462832,58.6444988 C38.5949206,56.480484 37.7465815,53.8796325 37.7465815,51.0839038 Z M51.3563304,64.6936526 C47.0338283,64.6936526 43.1783996,62.6656208 40.6835246,59.5137635 L50.7851558,52.2067752 L52.5072341,64.6414375 C52.1274161,64.6734181 51.744308,64.6936526 51.3563304,64.6936526 Z M53.5770679,64.5095015 L51.8557792,52.0758261 L64.0747047,55.9210224 C62.3746047,60.3758554 58.4000716,63.7142658 53.5770679,64.5095015 Z M51.6921916,50.8938303 L51.6074366,50.2816272 L51.5484767,50.3242679 L51.5484767,37.4792876 C58.9641394,37.5828624 64.9660792,43.6440911 64.9660792,51.0839038 C64.9660792,52.4081997 64.7723536,53.6874203 64.4179358,54.8986988 L51.6921916,50.8938303 Z" id="Shape" fill-rule="nonzero"></path>
                <rect id="Rectangle" x="8.54389713" y="47.8633475" width="25.4653072" height="1.078125"></rect>
                <rect id="Rectangle" x="8.54389713" y="52.5316472" width="25.4383278" height="1.078125"></rect>
                <rect id="Rectangle" x="27.8261733" y="18.9696107" width="4.5010929" height="19.2876392"></rect>
                <rect id="Rectangle" x="14.8778815" y="15.5142017" width="4.50115872" height="22.7430482"></rect>
                <rect id="Rectangle" x="8.54389713" y="43.1950808" width="26.6835938" height="1.078125"></rect>
                <rect id="Rectangle" x="8.40373565" y="26.8075676" width="4.50115872" height="11.4496822"></rect>
                <rect id="Rectangle" x="8.54389713" y="57.199914" width="19.0989475" height="1.078125"></rect>
                <rect id="Rectangle" x="21.3520274" y="21.8967161" width="4.50115872" height="16.3605337"></rect>
                <rect id="Rectangle" x="34.3003192" y="25.6378112" width="4.5010929" height="12.6194386"></rect>
                <path d="M4.57541798,64.3285747 L4.57541798,8.9500694 L11.7728762,8.9500694 L11.7728762,11.2178893 L35.4322715,11.2178893 L35.4322715,8.9500694 L42.6285453,8.9500694 L42.6285453,34.8330974 C43.9732403,34.1081071 45.4181542,33.5473952 46.9359126,33.1727428 L46.9359126,6.09679558 L35.4322715,6.09679558 L35.4322715,5.75178771 C35.4322715,4.2478152 34.2086549,3.0187369 32.7046495,3.0187369 L28.0687251,3.0187369 C27.556642,3.0187369 27.1037821,2.69531255 26.8828139,2.17240484 C26.3221679,0.851695085 25.0338006,0 23.5998759,0 C22.1660171,0 20.877584,0.851695085 20.3223996,2.17240479 C20.1013655,2.6953125 19.6431756,3.01873685 19.1364226,3.01873685 L14.5005641,3.01873685 C12.9965587,3.01873685 11.7728763,4.24781514 11.7728763,5.75178766 L11.7728763,6.09679553 L0.269235143,6.09679553 L0.269235143,69 L46.9353862,69 C43.7177253,68.2056856 40.83178,66.5650392 38.5245109,64.3285747 L4.57541798,64.3285747 Z" id="Path"></path>
            </g>
        </g>
    </g>
</svg>