<?xml version="1.0" encoding="UTF-8"?>
<svg width="59px" height="70px" viewBox="0 0 59 70" version="1.1" xmlns="http://www.w3.org/2000/svg" xmlns:xlink="http://www.w3.org/1999/xlink">
    <!-- Generator: Sketch 52.4 (67378) - http://www.bohemiancoding.com/sketch -->
    <title>noun_cash flow_1927906_32527c</title>
    <desc>Created with Sketch.</desc>
    <g id="menu" stroke="none" stroke-width="1" fill="none" fill-rule="evenodd">
        <g id="app-MENU" transform="translate(-281.000000, -410.000000)" fill="#FFFFFF">
            <g id="noun_cash-flow_1927906_32527c" transform="translate(281.000000, 410.000000)">
                <path d="M58.1875,14.2916667 L53.375,14.2916667 L53.375,43.6041667 L47.6875,43.6041667 C48.8541667,41.125 49.4375,38.2083333 49.4375,35.2916667 C49.4375,29.3125 46.8125,23.9166667 42.7291667,20.2708333 L42.7291667,14.2916667 L37.9166667,14.2916667 L48.125,0 L58.1875,14.2916667 Z" id="Path"></path>
                <path d="M20.4166667,55.7083333 L10.2083333,70 L0,55.7083333 L4.8125,55.7083333 L4.8125,26.3958333 L10.7916667,26.3958333 C9.47916667,29.0208333 8.75,32.0833333 8.75,35.1458333 C8.75,41.125 11.375,46.5208333 15.4583333,50.1666667 L15.4583333,55.7083333 L20.4166667,55.7083333 Z" id="Path"></path>
                <path d="M26.3958333,28.2916667 C26.8333333,27.8541667 27.5625,27.5625 28.5833333,27.5625 L28.5833333,32.8125 C25.0833333,31.6458333 25.2291667,29.3125 26.3958333,28.2916667 Z" id="Path"></path>
                <path d="M32.9583333,38.0625 C33.8333333,38.7916667 33.9791667,40.5416667 32.8125,41.5625 C32.2291667,42 31.5,42.2916667 30.4791667,42.4375 L30.4791667,37.0416667 C31.6458333,37.3333333 32.5208333,37.7708333 32.9583333,38.0625 Z" id="Path"></path>
                <path d="M29.1666667,17.9375 C19.5416667,17.9375 11.8125,25.8125 11.8125,35.2916667 C11.8125,44.7708333 19.5416667,52.6458333 29.1666667,52.6458333 C38.7916667,52.6458333 46.5208333,44.9166667 46.5208333,35.2916667 C46.5208333,25.6666667 38.7916667,17.9375 29.1666667,17.9375 Z M35.4375,43.8958333 C34.125,45.0625 32.5208333,45.6458333 30.4791667,45.6458333 L30.4791667,47.8333333 L28.5833333,47.8333333 L28.5833333,45.6458333 C25.8125,45.3541667 23.3333333,44.1875 21.1458333,42.2916667 L23.3333333,39.6666667 C25.0833333,41.125 26.8333333,42 28.5833333,42.2916667 L28.5833333,36.4583333 C26.25,35.875 24.6458333,35.1458333 23.625,34.2708333 C21.5833333,32.6666667 21.2916667,28.4375 23.9166667,26.1041667 C25.0833333,24.9375 26.6875,24.3541667 28.7291667,24.2083333 L28.7291667,22.75 L30.625,22.75 L30.625,24.3541667 C32.8125,24.5 35,25.2291667 36.8958333,26.6875 L34.8541667,29.4583333 C33.5416667,28.4375 32.0833333,28 30.4791667,27.7083333 L30.4791667,33.3958333 L30.625,33.3958333 C32.9583333,33.9791667 34.7083333,34.7083333 35.7291667,35.5833333 C37.7708333,37.1875 38.0625,41.4166667 35.4375,43.8958333 Z" id="Shape" fill-rule="nonzero"></path>
            </g>
        </g>
    </g>
</svg>