<svg fill="#32527C" xmlns="http://www.w3.org/2000/svg" xmlns:xlink="http://www.w3.org/1999/xlink" version="1.1" x="0px" y="0px" viewBox="0 0 50 50" enable-background="new 0 0 50 50" xml:space="preserve"><g><g><path d="M44.9,10.8h-3.3v20.1h-3.9c0.8-1.7,1.2-3.7,1.2-5.7c0-4.1-1.8-7.8-4.6-10.3v-4.1H31L38,1L44.9,10.8z"></path></g><g><path d="M19,39.2L12,49l-7-9.8h3.3V19.1h4.1c-0.9,1.8-1.4,3.9-1.4,6c0,4.1,1.8,7.8,4.6,10.3v3.8H19z"></path></g><path d="M23.1,20.4c0.3-0.3,0.8-0.5,1.5-0.5v3.6C22.2,22.7,22.3,21.1,23.1,20.4z"></path><path d="M27.6,27.1c0.6,0.5,0.7,1.7-0.1,2.4c-0.4,0.3-0.9,0.5-1.6,0.6v-3.7C26.7,26.6,27.3,26.9,27.6,27.1z"></path><path d="M25,13.3c-6.6,0-11.9,5.4-11.9,11.9c0,6.5,5.3,11.9,11.9,11.9c6.6,0,11.9-5.3,11.9-11.9C36.9,18.6,31.6,13.3,25,13.3z    M29.3,31.1c-0.9,0.8-2,1.2-3.4,1.2v1.5h-1.3v-1.5c-1.9-0.2-3.6-1-5.1-2.3l1.5-1.8c1.2,1,2.4,1.6,3.6,1.8v-4   c-1.6-0.4-2.7-0.9-3.4-1.5c-1.4-1.1-1.6-4,0.2-5.6c0.8-0.8,1.9-1.2,3.3-1.3v-1h1.3v1.1c1.5,0.1,3,0.6,4.3,1.6l-1.4,1.9   c-0.9-0.7-1.9-1-3-1.2v3.9h0.1c1.6,0.4,2.8,0.9,3.5,1.5C30.9,26.5,31.1,29.4,29.3,31.1z"></path></g></svg>