<svg fill="#32527C" xmlns="http://www.w3.org/2000/svg" xmlns:xlink="http://www.w3.org/1999/xlink" version="1.1" x="0px" y="0px" viewBox="0 0 100 100" enable-background="new 0 0 100 100" xml:space="preserve"><path d="M57.705,30.873l20.82,12.801l-1.721,2.799l9.568,0.265l-4.555-8.418l-1.721,2.801L58.255,27.69l-15.521,3.293L14.851,13.841  l-1.571,2.559l28.905,17.77L57.705,30.873z M10.013,69.586v4.163c0,2.163,5.332,4.584,12.466,4.584  c7.134,0,12.465-2.421,12.465-4.584v-4.163c-2.541,1.9-7.069,3.121-12.465,3.121C17.082,72.707,12.553,71.486,10.013,69.586z   M10.013,53.935v4.164c0,2.165,5.332,4.584,12.466,4.584c7.134,0,12.465-2.419,12.465-4.584v-4.164  c-2.541,1.903-7.069,3.124-12.465,3.124C17.082,57.059,12.553,55.838,10.013,53.935z M10.013,61.762v4.162  c0,2.165,5.332,4.584,12.466,4.584c7.134,0,12.465-2.419,12.465-4.584v-4.162c-2.541,1.901-7.069,3.12-12.465,3.12  C17.082,64.882,12.553,63.663,10.013,61.762z M10.013,77.41v4.165c0,2.162,5.332,4.583,12.466,4.583  c7.134,0,12.465-2.421,12.465-4.583V77.41c-2.541,1.903-7.069,3.122-12.465,3.122C17.082,80.532,12.553,79.313,10.013,77.41z   M65.056,73.75c0,2.165,5.331,4.584,12.466,4.584s12.465-2.419,12.465-4.584c0-2.162-5.33-4.583-12.465-4.583  S65.056,71.588,65.056,73.75z M50,53.515c-7.135,0-12.466,2.421-12.466,4.583c0,2.165,5.332,4.584,12.466,4.584  c7.134,0,12.464-2.419,12.464-4.584C62.465,55.936,57.135,53.515,50,53.515z M37.534,61.761v4.164c0,2.161,5.332,4.581,12.466,4.581  c7.134,0,12.464-2.42,12.464-4.581v-4.164c-2.54,1.901-7.068,3.122-12.464,3.122C44.604,64.883,40.075,63.662,37.534,61.761z   M65.056,77.413v4.164c0,2.161,5.331,4.581,12.466,4.581s12.465-2.42,12.465-4.581v-4.164c-2.54,1.901-7.068,3.122-12.465,3.122  S67.596,79.314,65.056,77.413z M37.534,69.585v4.164c0,2.165,5.332,4.584,12.466,4.584c7.134,0,12.464-2.419,12.464-4.584v-4.164  c-2.54,1.903-7.068,3.124-12.464,3.124C44.604,72.709,40.075,71.488,37.534,69.585z M22.479,37.864  c-7.135,0-12.466,2.421-12.466,4.583c0,2.165,5.332,4.584,12.466,4.584c7.134,0,12.465-2.419,12.465-4.584  C34.944,40.285,29.613,37.864,22.479,37.864z M37.534,77.412v4.162c0,2.165,5.332,4.584,12.466,4.584  c7.134,0,12.464-2.419,12.464-4.584v-4.162c-2.54,1.901-7.068,3.12-12.464,3.12C44.604,80.532,40.075,79.313,37.534,77.412z   M10.013,46.11v4.164c0,2.161,5.332,4.581,12.466,4.581c7.134,0,12.465-2.42,12.465-4.581V46.11  c-2.541,1.901-7.069,3.122-12.465,3.122C17.082,49.232,12.553,48.012,10.013,46.11z"></path></svg>