<?xml version="1.0" encoding="UTF-8"?>
<svg width="88px" height="81px" viewBox="0 0 88 81" version="1.1" xmlns="http://www.w3.org/2000/svg" xmlns:xlink="http://www.w3.org/1999/xlink">
    <!-- Generator: Sketch 52.4 (67378) - http://www.bohemiancoding.com/sketch -->
    <title>noun_losses_201054_32527c</title>
    <desc>Created with Sketch.</desc>
    <defs>
        <filter x="-15.0%" y="-16.2%" width="130.0%" height="132.4%" filterUnits="objectBoundingBox" id="filter-1">
            <feOffset dx="0" dy="2" in="SourceAlpha" result="shadowOffsetOuter1"></feOffset>
            <feGaussianBlur stdDeviation="2" in="shadowOffsetOuter1" result="shadowBlurOuter1"></feGaussianBlur>
            <feColorMatrix values="0 0 0 0 0   0 0 0 0 0   0 0 0 0 0  0 0 0 0.5 0" type="matrix" in="shadowBlurOuter1" result="shadowMatrixOuter1"></feColorMatrix>
            <feMerge>
                <feMergeNode in="shadowMatrixOuter1"></feMergeNode>
                <feMergeNode in="SourceGraphic"></feMergeNode>
            </feMerge>
        </filter>
    </defs>
    <g id="menu" stroke="none" stroke-width="1" fill="none" fill-rule="evenodd">
        <g id="app-MENU" transform="translate(-62.000000, -226.000000)" fill="#FFFFFF" fill-rule="nonzero">
            <g id="noun_losses_201054_32527c" filter="url(#filter-1)" transform="translate(66.000000, 227.000000)">
                <path d="M47.705,17.873 L68.525,30.674 L66.804,33.473 L76.372,33.738 L71.817,25.32 L70.096,28.121 L48.255,14.69 L32.734,17.983 L4.851,0.841 L3.28,3.4 L32.185,21.17 L47.705,17.873 Z M0.013,56.586 L0.013,60.749 C0.013,62.912 5.345,65.333 12.479,65.333 C19.613,65.333 24.944,62.912 24.944,60.749 L24.944,56.586 C22.403,58.486 17.875,59.707 12.479,59.707 C7.082,59.707 2.553,58.486 0.013,56.586 Z M0.013,40.935 L0.013,45.099 C0.013,47.264 5.345,49.683 12.479,49.683 C19.613,49.683 24.944,47.264 24.944,45.099 L24.944,40.935 C22.403,42.838 17.875,44.059 12.479,44.059 C7.082,44.059 2.553,42.838 0.013,40.935 Z M0.013,48.762 L0.013,52.924 C0.013,55.089 5.345,57.508 12.479,57.508 C19.613,57.508 24.944,55.089 24.944,52.924 L24.944,48.762 C22.403,50.663 17.875,51.882 12.479,51.882 C7.082,51.882 2.553,50.663 0.013,48.762 Z M0.013,64.41 L0.013,68.575 C0.013,70.737 5.345,73.158 12.479,73.158 C19.613,73.158 24.944,70.737 24.944,68.575 L24.944,64.41 C22.403,66.313 17.875,67.532 12.479,67.532 C7.082,67.532 2.553,66.313 0.013,64.41 Z M55.056,60.75 C55.056,62.915 60.387,65.334 67.522,65.334 C74.657,65.334 79.987,62.915 79.987,60.75 C79.987,58.588 74.657,56.167 67.522,56.167 C60.387,56.167 55.056,58.588 55.056,60.75 Z M40,40.515 C32.865,40.515 27.534,42.936 27.534,45.098 C27.534,47.263 32.866,49.682 40,49.682 C47.134,49.682 52.464,47.263 52.464,45.098 C52.465,42.936 47.135,40.515 40,40.515 Z M27.534,48.761 L27.534,52.925 C27.534,55.086 32.866,57.506 40,57.506 C47.134,57.506 52.464,55.086 52.464,52.925 L52.464,48.761 C49.924,50.662 45.396,51.883 40,51.883 C34.604,51.883 30.075,50.662 27.534,48.761 Z M55.056,64.413 L55.056,68.577 C55.056,70.738 60.387,73.158 67.522,73.158 C74.657,73.158 79.987,70.738 79.987,68.577 L79.987,64.413 C77.447,66.314 72.919,67.535 67.522,67.535 C62.125,67.535 57.596,66.314 55.056,64.413 Z M27.534,56.585 L27.534,60.749 C27.534,62.914 32.866,65.333 40,65.333 C47.134,65.333 52.464,62.914 52.464,60.749 L52.464,56.585 C49.924,58.488 45.396,59.709 40,59.709 C34.604,59.709 30.075,58.488 27.534,56.585 Z M12.479,24.864 C5.344,24.864 0.013,27.285 0.013,29.447 C0.013,31.612 5.345,34.031 12.479,34.031 C19.613,34.031 24.944,31.612 24.944,29.447 C24.944,27.285 19.613,24.864 12.479,24.864 Z M27.534,64.412 L27.534,68.574 C27.534,70.739 32.866,73.158 40,73.158 C47.134,73.158 52.464,70.739 52.464,68.574 L52.464,64.412 C49.924,66.313 45.396,67.532 40,67.532 C34.604,67.532 30.075,66.313 27.534,64.412 Z M0.013,33.11 L0.013,37.274 C0.013,39.435 5.345,41.855 12.479,41.855 C19.613,41.855 24.944,39.435 24.944,37.274 L24.944,33.11 C22.403,35.011 17.875,36.232 12.479,36.232 C7.082,36.232 2.553,35.012 0.013,33.11 Z" id="Shape"></path>
            </g>
        </g>
    </g>
</svg>