<?xml version="1.0" encoding="utf-8"?>
<!-- Generator: Adobe Illustrator 16.0.0, SVG Export Plug-In . SVG Version: 6.00 Build 0)  -->
<!DOCTYPE svg PUBLIC "-//W3C//DTD SVG 1.1//EN" "http://www.w3.org/Graphics/SVG/1.1/DTD/svg11.dtd">
<svg version="1.1" id="Livello_1" xmlns="http://www.w3.org/2000/svg" xmlns:xlink="http://www.w3.org/1999/xlink" x="0px" y="0px"
	 width="1280px" height="1080px" viewBox="0 0 1280 1080" enable-background="new 0 0 1280 1080" xml:space="preserve">
<title>Icon_</title>
<path fill="#FFFFFF" d="M366.25,492.25h517.5c15.879,0,28.75,12.872,28.75,28.75l0,0c0,15.878-12.871,28.75-28.75,28.75h-517.5
	c-15.878,0-28.75-12.872-28.75-28.75l0,0C337.5,505.122,350.372,492.25,366.25,492.25z"/>
<path fill="#FFFFFF" d="M366.25,751h517.5c15.879,0,28.75,12.872,28.75,28.75l0,0c0,15.878-12.871,28.75-28.75,28.75h-517.5
	c-15.878,0-28.75-12.872-28.75-28.75l0,0C337.5,763.872,350.372,751,366.25,751z"/>
<path fill="#FFFFFF" d="M366.25,233.5h517.5c15.879,0,28.75,12.872,28.75,28.75l0,0c0,15.878-12.871,28.75-28.75,28.75h-517.5
	c-15.878,0-28.75-12.872-28.75-28.75l0,0C337.5,246.372,350.372,233.5,366.25,233.5z"/>
<circle fill="none" stroke="#FFFFFF" stroke-width="8" stroke-miterlimit="10" cx="639.5" cy="516" r="510"/>
</svg>
