<svg fill="#32527C" xmlns="http://www.w3.org/2000/svg" viewBox="0 0 16 16" x="0px" y="0px"><title>rgb color model</title><path d="M10.917,9.046a5.991,5.991,0,0,0-2-3.58A4.935,4.935,0,0,1,12.96,5.4,4.973,4.973,0,0,1,10.917,9.046ZM8,13.977a4.968,4.968,0,0,1-1.932-3.3,5.9,5.9,0,0,0,3.864,0A4.968,4.968,0,0,1,8,13.977ZM3.04,5.4a4.935,4.935,0,0,1,4.041.066,5.991,5.991,0,0,0-2,3.58A4.973,4.973,0,0,1,3.04,5.4ZM8,10a4.981,4.981,0,0,1-1.96-.4A4.966,4.966,0,0,1,8,6.023,4.966,4.966,0,0,1,9.96,9.6,4.981,4.981,0,0,1,8,10ZM8,0a4.985,4.985,0,0,1,4.932,4.325A5.931,5.931,0,0,0,8,4.812a5.931,5.931,0,0,0-4.932-.487A4.985,4.985,0,0,1,8,0ZM5,15A4.99,4.99,0,0,1,2.083,5.954a6.006,6.006,0,0,0,2.927,4.24,5.982,5.982,0,0,0,2.072,4.339A4.959,4.959,0,0,1,5,15Zm6,0a4.959,4.959,0,0,1-2.082-.466,5.982,5.982,0,0,0,2.072-4.339,6.006,6.006,0,0,0,2.927-4.24A4.99,4.99,0,0,1,11,15Z"></path></svg>