<?xml version="1.0" encoding="UTF-8"?>
<svg width="76px" height="70px" viewBox="0 0 76 70" version="1.1" xmlns="http://www.w3.org/2000/svg" xmlns:xlink="http://www.w3.org/1999/xlink">
    <!-- Generator: Sketch 52.4 (67378) - http://www.bohemiancoding.com/sketch -->
    <title>noun_Rgb color model_1502155_32527c 2</title>
    <desc>Created with Sketch.</desc>
    <g id="menu" stroke="none" stroke-width="1" fill="none" fill-rule="evenodd">
        <g id="app-MENU" transform="translate(-273.000000, -588.000000)" fill="#FFFFFF" fill-rule="nonzero">
            <g id="noun_Rgb-color-model_1502155_32527c-2" transform="translate(273.000000, 588.000000)">
                <g id="noun_Rgb-color-model_1502155_32527c">
                    <path d="M51.6126667,42.2146667 C50.5636844,35.7212501 47.258846,29.8055894 42.2793333,25.508 C48.2357858,22.7152632 55.1022322,22.6031718 61.1466667,25.2 C60.621789,31.9965299 57.135319,38.2185903 51.6126667,42.2146667 Z M38,65.226 C33.0603052,61.5012379 29.8142158,55.9566752 28.984,49.826 C34.824273,51.8500354 41.175727,51.8500354 47.016,49.826 C46.1857842,55.9566752 42.9396948,61.5012379 38,65.226 Z M14.8533333,25.2 C20.8950883,22.6059701 27.7575126,22.7180513 33.7113333,25.508 C28.7318206,29.8055894 25.4269822,35.7212501 24.378,42.2146667 C18.8588723,38.2167173 15.3759742,31.9949405 14.8533333,25.2 Z M38,46.6666667 C34.8562514,46.6693718 31.7446226,46.0343456 28.8533333,44.8 C29.371026,38.1826632 32.7012887,32.1049339 38,28.1073333 C43.2987113,32.1049339 46.628974,38.1826632 47.1466667,44.8 C44.2553774,46.0343456 41.1437486,46.6693718 38,46.6666667 Z M38,0 C49.6413723,0.0212905017 59.4747319,8.64442116 61.016,20.1833333 C53.3799869,17.5455845 44.9726583,18.3757485 38,22.456 C31.0273417,18.3757485 22.6200131,17.5455845 14.984,20.1833333 C16.5252681,8.64442116 26.3586277,0.0212905017 38,0 Z M24,70 C13.874808,70.0209092 4.89646983,63.4966764 1.78902825,53.8600921 C-1.31841332,44.2235078 2.1572784,33.6833115 10.3873333,27.7853333 C11.7366018,36.0980392 16.7521526,43.3634767 24.0466667,47.572 C24.2958726,55.3768656 27.8027068,62.7205692 33.716,67.8206667 C30.673838,69.2435176 27.3584356,69.9871741 24,70 Z M52,70 C48.6419115,69.9886355 45.3265252,69.2465749 42.284,67.8253333 C48.1972932,62.7252359 51.7041274,55.3815322 51.9533333,47.5766667 C59.2478474,43.3681433 64.2633982,36.1027059 65.6126667,27.79 C73.8385057,33.6892518 77.3111428,44.226866 74.2042139,53.8607952 C71.097285,63.4947244 62.1225132,70.0180664 52,70 Z" id="Shape"></path>
                </g>
            </g>
        </g>
    </g>
</svg>