<?xml version="1.0" encoding="utf-8"?>
<!-- Generator: Adobe Illustrator 16.0.0, SVG Export Plug-In . SVG Version: 6.00 Build 0)  -->
<!DOCTYPE svg PUBLIC "-//W3C//DTD SVG 1.1//EN" "http://www.w3.org/Graphics/SVG/1.1/DTD/svg11.dtd">
<svg version="1.1" id="Livello_1" xmlns="http://www.w3.org/2000/svg" xmlns:xlink="http://www.w3.org/1999/xlink" x="0px" y="0px"
	 width="1280px" height="1080px" viewBox="0 0 1280 1080" enable-background="new 0 0 1280 1080" xml:space="preserve">
<circle fill="none" stroke="#FFFFFF" stroke-width="8" stroke-miterlimit="10" cx="674.5" cy="554" r="510"/>
<path fill="#FFFFFF" d="M589.018,362.094l145.765,30.927l205.158-126.109l16.162,26.296l42.788-79.068l-89.858,2.471l16.163,26.315
	l-195.578,120.22l-145.766-30.927L312.419,499.097l14.745,24.043L589.018,362.094z M542.248,627.02v39.105
	c0,20.286,50.057,43.013,117.065,43.013c67.008,0,117.084-22.727,117.084-43.013V627.02c-23.863,17.843-66.398,29.31-117.084,29.31
	C608.627,656.329,566.112,644.872,542.248,627.02z M542.248,774.005v39.088c0,20.342,50.057,43.051,117.065,43.051
	c67.008,0,117.084-22.709,117.084-43.051v-39.088c-23.863,17.863-66.398,29.312-117.084,29.312
	C608.627,803.317,566.112,791.868,542.248,774.005z M800.721,445.631c0,20.333,50.058,43.052,117.065,43.052
	c67.009,0,117.084-22.719,117.084-43.052c0-20.304-50.075-43.041-117.084-43.041C850.778,402.59,800.721,425.327,800.721,445.631z
	 M283.784,774.024v39.107c0,20.285,50.057,43.013,117.065,43.013c67.009,0,117.084-22.728,117.084-43.013v-39.107
	c-23.864,17.845-66.398,29.312-117.084,29.312S307.648,791.868,283.784,774.024z M400.849,696.573
	c-67.008,0-117.065,22.728-117.065,43.031c0,20.343,50.057,43.052,117.065,43.052c67.009,0,117.084-22.709,117.084-43.052
	C517.924,719.3,467.849,696.573,400.849,696.573z M542.248,700.498v39.105c0,20.324,50.057,43.052,117.065,43.052
	c67.008,0,117.084-22.728,117.084-43.052v-39.105c-23.863,17.863-66.398,29.33-117.084,29.33
	C608.627,729.828,566.112,718.369,542.248,700.498z M800.721,553.521v39.106c0,20.323,50.058,43.051,117.065,43.051
	c67.009,0,117.084-22.728,117.084-43.051v-39.106c-23.863,17.863-66.397,29.33-117.084,29.33
	C867.101,582.851,824.585,571.384,800.721,553.521z M800.721,627.02v39.087c0,20.342,50.058,43.05,117.065,43.05
	c67.009,0,117.084-22.708,117.084-43.05V627.02c-23.863,17.861-66.397,29.31-117.084,29.31
	C867.101,656.329,824.585,644.891,800.721,627.02z M659.313,549.577c-67.008,0-117.065,22.727-117.065,43.031
	c0,20.342,50.057,43.051,117.065,43.051c67.008,0,117.084-22.709,117.084-43.051C776.397,572.304,726.321,549.577,659.313,549.577z
	 M800.721,480.032v39.106c0,20.295,50.058,43.022,117.065,43.022c67.009,0,117.084-22.718,117.084-43.022v-39.106
	c-23.863,17.854-66.397,29.32-117.084,29.32C867.101,509.353,824.585,497.896,800.721,480.032z M800.721,700.498v39.105
	c0,20.305,50.058,43.052,117.065,43.052c67.009,0,117.084-22.747,117.084-43.052v-39.105
	c-23.863,17.844-66.397,29.312-117.084,29.312C867.101,729.81,824.585,718.351,800.721,700.498z M800.721,773.987v39.126
	c0,20.304,50.058,43.031,117.065,43.031c67.009,0,117.084-22.728,117.084-43.031v-39.126c-23.863,17.882-66.397,29.33-117.084,29.33
	C867.101,803.317,824.585,791.868,800.721,773.987z"/>
</svg>
