<?xml version="1.0" encoding="UTF-8"?>
<svg width="88px" height="77px" viewBox="0 0 88 77" version="1.1" xmlns="http://www.w3.org/2000/svg" xmlns:xlink="http://www.w3.org/1999/xlink">
    <!-- Generator: Sketch 52.4 (67378) - http://www.bohemiancoding.com/sketch -->
    <title>noun_Profit_201055_32527c</title>
    <desc>Created with Sketch.</desc>
    <defs>
        <filter x="-15.0%" y="-17.4%" width="130.0%" height="134.8%" filterUnits="objectBoundingBox" id="filter-1">
            <feOffset dx="0" dy="2" in="SourceAlpha" result="shadowOffsetOuter1"></feOffset>
            <feGaussianBlur stdDeviation="2" in="shadowOffsetOuter1" result="shadowBlurOuter1"></feGaussianBlur>
            <feColorMatrix values="0 0 0 0 0   0 0 0 0 0   0 0 0 0 0  0 0 0 0.5 0" type="matrix" in="shadowBlurOuter1" result="shadowMatrixOuter1"></feColorMatrix>
            <feMerge>
                <feMergeNode in="shadowMatrixOuter1"></feMergeNode>
                <feMergeNode in="SourceGraphic"></feMergeNode>
            </feMerge>
        </filter>
    </defs>
    <g id="menu" stroke="none" stroke-width="1" fill="none" fill-rule="evenodd">
        <g id="app-MENU" transform="translate(-62.000000, -44.000000)" fill="#FFFFFF" fill-rule="nonzero">
            <g id="noun_Profit_201055_32527c" filter="url(#filter-1)" transform="translate(66.000000, 46.000000)">
                <path d="M32.501,15.754 L48.022,19.047 L69.867,5.619 L71.588,8.419 L76.144,0 L66.576,0.263 L68.297,3.065 L47.472,15.866 L31.951,12.573 L3.049,30.342 L4.619,32.902 L32.501,15.754 Z M27.521,43.963 L27.521,48.127 C27.521,50.287 32.851,52.707 39.986,52.707 C47.121,52.707 52.453,50.287 52.453,48.127 L52.453,43.963 C49.912,45.863 45.383,47.084 39.986,47.084 C34.589,47.084 30.062,45.864 27.521,43.963 Z M27.521,59.614 L27.521,63.776 C27.521,65.942 32.851,68.36 39.986,68.36 C47.121,68.36 52.453,65.942 52.453,63.776 L52.453,59.614 C49.912,61.516 45.383,62.735 39.986,62.735 C34.589,62.735 30.062,61.516 27.521,59.614 Z M55.043,24.649 C55.043,26.814 60.373,29.233 67.508,29.233 C74.643,29.233 79.975,26.814 79.975,24.649 C79.975,22.487 74.643,20.066 67.508,20.066 C60.373,20.066 55.043,22.487 55.043,24.649 Z M0,59.616 L0,63.78 C0,65.94 5.33,68.36 12.465,68.36 C19.6,68.36 24.932,65.94 24.932,63.78 L24.932,59.616 C22.391,61.516 17.862,62.737 12.465,62.737 C7.068,62.737 2.541,61.516 0,59.616 Z M12.465,51.369 C5.33,51.369 1.77635684e-15,53.789 1.77635684e-15,55.951 C1.77635684e-15,58.117 5.33,60.535 12.465,60.535 C19.6,60.535 24.932,58.117 24.932,55.951 C24.931,53.789 19.599,51.369 12.465,51.369 Z M27.521,51.787 L27.521,55.951 C27.521,58.115 32.851,60.535 39.986,60.535 C47.121,60.535 52.453,58.115 52.453,55.951 L52.453,51.787 C49.912,53.689 45.383,54.91 39.986,54.91 C34.589,54.91 30.062,53.69 27.521,51.787 Z M55.043,36.137 L55.043,40.301 C55.043,42.465 60.373,44.885 67.508,44.885 C74.643,44.885 79.975,42.465 79.975,40.301 L79.975,36.137 C77.434,38.039 72.905,39.26 67.508,39.26 C62.111,39.26 57.584,38.039 55.043,36.137 Z M55.043,43.963 L55.043,48.125 C55.043,50.291 60.373,52.709 67.508,52.709 C74.643,52.709 79.975,50.291 79.975,48.125 L79.975,43.963 C77.434,45.865 72.905,47.084 67.508,47.084 C62.111,47.084 57.584,45.866 55.043,43.963 Z M39.986,35.717 C32.851,35.717 27.521,38.137 27.521,40.299 C27.521,42.465 32.851,44.883 39.986,44.883 C47.121,44.883 52.453,42.465 52.453,40.299 C52.453,38.137 47.121,35.717 39.986,35.717 Z M55.043,28.312 L55.043,32.476 C55.043,34.637 60.373,37.057 67.508,37.057 C74.643,37.057 79.975,34.638 79.975,32.476 L79.975,28.312 C77.434,30.213 72.905,31.434 67.508,31.434 C62.111,31.434 57.584,30.214 55.043,28.312 Z M55.043,51.787 L55.043,55.951 C55.043,58.113 60.373,60.535 67.508,60.535 C74.643,60.535 79.975,58.113 79.975,55.951 L79.975,51.787 C77.434,53.687 72.905,54.908 67.508,54.908 C62.111,54.908 57.584,53.688 55.043,51.787 Z M55.043,59.612 L55.043,63.778 C55.043,65.94 60.373,68.36 67.508,68.36 C74.643,68.36 79.975,65.94 79.975,63.778 L79.975,59.612 C77.434,61.516 72.905,62.735 67.508,62.735 C62.111,62.735 57.584,61.516 55.043,59.612 Z" id="Shape"></path>
            </g>
        </g>
    </g>
</svg>