<?xml version="1.0" encoding="UTF-8"?>
<svg width="70px" height="70px" viewBox="0 0 70 70" version="1.1" xmlns="http://www.w3.org/2000/svg" xmlns:xlink="http://www.w3.org/1999/xlink">
    <!-- Generator: Sketch 52.4 (67378) - http://www.bohemiancoding.com/sketch -->
    <title>noun_sales channels_1207557_32527c</title>
    <desc>Created with Sketch.</desc>
    <g id="menu" stroke="none" stroke-width="1" fill="none" fill-rule="evenodd">
        <g id="app-MENU" transform="translate(-71.000000, -589.000000)" fill="#FFFFFF">
            <g id="noun_sales-channels_1207557_32527c" transform="translate(71.000000, 589.000000)">
                <path d="M44.527,27.573 C44.527,26.413202 43.586798,25.473 42.427,25.473 L27.573,25.473 C26.413202,25.473 25.473,26.413202 25.473,27.573 L25.473,42.427 C25.473,43.586798 26.413202,44.527 27.573,44.527 L42.427,44.527 C43.586798,44.527 44.527,43.586798 44.527,42.427 L44.527,27.573 Z M37.975,37.1 L32.025,37.1 L32.025,32.9 L37.975,32.9 L37.975,37.1 Z" id="Shape" fill-rule="nonzero"></path>
                <path d="M37.1,20.097 L37.1,13.594 C40.1790353,12.5644187 42.0575558,9.45442967 41.5359909,6.24998496 C41.014426,3.04554025 38.246613,0.691802232 35,0.691802232 C31.753387,0.691802232 28.985574,3.04554025 28.4640091,6.24998496 C27.9424442,9.45442967 29.8209647,12.5644187 32.9,13.594 L32.9,20.097 L37.1,20.097 Z" id="Path"></path>
                <path d="M37.1,56.406 L37.1,49.903 L32.9,49.903 L32.9,56.406 C29.8209647,57.4355813 27.9424442,60.5455703 28.4640091,63.750015 C28.985574,66.9544598 31.753387,69.3081978 35,69.3081978 C38.246613,69.3081978 41.014426,66.9544598 41.5359909,63.750015 C42.0575558,60.5455703 40.1790353,57.4355813 37.1,56.406 Z" id="Path"></path>
                <path d="M47.026,25.949 L51.625,21.35 C54.1716295,22.6262124 57.2494671,22.1268748 59.262,20.111 C61.6529406,17.7206242 61.8592482,13.9129732 59.7405791,11.278256 C57.62191,8.64353884 53.8586956,8.02792065 51.0109161,9.85018453 C48.1631367,11.6724484 47.1453845,15.3473564 48.65,18.375 L44.051,22.974 L47.026,25.949 Z" id="Path"></path>
                <path d="M22.974,44.058 L18.375,48.65 C15.4698377,47.2000961 11.9419564,48.0704083 10.0444474,50.7051091 C8.1469384,53.33981 8.43957308,56.961654 10.7354595,59.2575405 C13.031346,61.5534269 16.65319,61.8460616 19.2878909,59.9485526 C21.9225917,58.0510436 22.7929039,54.5231623 21.343,51.618 L25.942,47.019 L22.974,44.058 Z" id="Path"></path>
                <path d="M51.618,48.65 L47.019,44.051 L44.051,47.019 L48.65,51.618 C47.383946,54.1638561 47.8824227,57.2335712 49.889,59.248 C52.2780922,61.6448251 56.0899608,61.8546268 58.7276634,59.7344718 C61.365366,57.6143168 61.9800639,53.8464918 60.1529771,50.9979332 C58.3258903,48.1493747 54.6449931,47.1367767 51.618,48.65 Z" id="Path"></path>
                <path d="M15.4,22.05 C16.4257382,22.0498502 17.4372669,21.8101514 18.354,21.35 L22.953,25.949 L25.921,22.981 L21.35,18.382 C22.6262124,15.8353705 22.1268748,12.7575329 20.111,10.745 C17.9940468,8.62859198 14.7205237,8.19553911 12.1260653,9.68867664 C9.53160698,11.1818142 8.26145644,14.229798 9.02785313,17.1234652 C9.79424983,20.0171325 12.4065905,22.0368265 15.4,22.05 Z" id="Path"></path>
                <path d="M62.678,28.378 C59.823408,28.3716447 57.2853153,30.1934312 56.378,32.9 L49.903,32.9 L49.903,37.1 L56.406,37.1 C57.4805467,40.297758 60.7892705,42.1746538 64.0853392,41.4561566 C67.3814079,40.7376593 69.6087927,37.6539687 69.2549589,34.2991053 C68.901125,30.9442419 66.0794374,28.3930715 62.706,28.378 L62.678,28.378 Z" id="Path"></path>
                <path d="M13.594,37.1 L20.097,37.1 L20.097,32.9 L13.594,32.9 C12.5644187,29.8209647 9.45442967,27.9424442 6.24998496,28.4640091 C3.04554025,28.985574 0.691802232,31.753387 0.691802232,35 C0.691802232,38.246613 3.04554025,41.014426 6.24998496,41.5359909 C9.45442967,42.0575558 12.5644187,40.1790353 13.594,37.1 Z" id="Path"></path>
            </g>
        </g>
    </g>
</svg>