<svg fill="#32527C" xmlns="http://www.w3.org/2000/svg" data-name="Layer 1" viewBox="0 0 100 100" x="0px" y="0px"><title>74 all</title><path d="M63.61,39.39a3,3,0,0,0-3-3H39.39a3,3,0,0,0-3,3V60.61a3,3,0,0,0,3,3H60.61a3,3,0,0,0,3-3ZM54.25,53h-8.5V47h8.5Z"></path><path d="M53,28.71V19.42a9.46,9.46,0,1,0-6,0v9.29Z"></path><path d="M53,80.58V71.29H47v9.29a9.46,9.46,0,1,0,6,0Z"></path><path d="M67.18,37.07l6.57-6.57a9.44,9.44,0,0,0,10.91-1.77h0A9.46,9.46,0,1,0,69.5,26.25l-6.57,6.57Z"></path><path d="M32.82,62.94,26.25,69.5a9.46,9.46,0,1,0,4.24,4.24l6.57-6.57Z"></path><path d="M73.74,69.5l-6.57-6.57-4.24,4.24,6.57,6.57a9.47,9.47,0,0,0,1.77,10.9h0A9.46,9.46,0,1,0,73.74,69.5Z"></path><path d="M22,31.5a9.41,9.41,0,0,0,4.22-1l6.57,6.57,4.24-4.24L30.5,26.26a9.44,9.44,0,0,0-1.77-10.91h0A9.46,9.46,0,1,0,22,31.5Z"></path><path d="M89.54,40.54a9.47,9.47,0,0,0-9,6.46H71.29v6h9.29a9.45,9.45,0,1,0,9-12.46Z"></path><path d="M19.42,53h9.29V47H19.42a9.46,9.46,0,1,0,0,6Z"></path></svg>