<svg fill="#FFFFFF" xmlns="http://www.w3.org/2000/svg" xmlns:xlink="http://www.w3.org/1999/xlink" version="1.1" x="0px" y="0px" viewBox="0 0 100 100" enable-background="new 0 0 100 100" xml:space="preserve"><path d="M51.83,37.444V25.168h-4v12.371c-2.852,0.919-4.921,3.595-4.921,6.747c0,3.153,2.069,5.829,4.921,6.748v23.798h4V51.129  c3.024-0.81,5.261-3.566,5.261-6.843C57.091,41.011,54.854,38.254,51.83,37.444z M50,47.377c-1.704,0-3.091-1.387-3.091-3.091  s1.387-3.09,3.091-3.09s3.091,1.386,3.091,3.09S51.704,47.377,50,47.377z M72.534,48.966V25.168h-4v23.703  c-3.024,0.81-5.261,3.566-5.261,6.843c0,3.275,2.236,6.032,5.261,6.842v12.276h4V62.461c2.852-0.919,4.921-3.595,4.921-6.747  C77.455,52.561,75.386,49.885,72.534,48.966z M70.364,58.804c-1.704,0-3.091-1.386-3.091-3.09s1.387-3.091,3.091-3.091  s3.091,1.387,3.091,3.091S72.068,58.804,70.364,58.804z M31.806,48.966V25.168h-4v23.703c-3.024,0.81-5.261,3.566-5.261,6.843  c0,3.275,2.236,6.032,5.261,6.842v12.276h4V62.461c2.852-0.919,4.921-3.595,4.921-6.747C36.727,52.561,34.657,49.885,31.806,48.966z   M29.636,58.804c-1.704,0-3.091-1.386-3.091-3.09s1.387-3.091,3.091-3.091s3.091,1.387,3.091,3.091S31.34,58.804,29.636,58.804z"></path></svg>