<?xml version="1.0" encoding="UTF-8"?>
<svg width="69px" height="69px" viewBox="0 0 69 69" version="1.1" xmlns="http://www.w3.org/2000/svg" xmlns:xlink="http://www.w3.org/1999/xlink">
    <!-- Generator: Sketch 52.4 (67378) - http://www.bohemiancoding.com/sketch -->
    <title>noun_Venture Capital_1561111_32527c</title>
    <desc>Created with Sketch.</desc>
    <g id="menu" stroke="none" stroke-width="1" fill="none" fill-rule="evenodd">
        <g id="app-MENU" transform="translate(-71.000000, -412.000000)">
            <g id="noun_Venture-Capital_1561111_32527c" transform="translate(71.000000, 412.000000)">
                <path d="M9.49152542,65.2542373 L18.9830508,65.2542373 C19.6383039,65.2542373 20.1694915,64.7230497 20.1694915,64.0677966 L20.1694915,63.6157627 L29.0274576,67.2937288 C33.8562584,69.2659383 39.2547888,69.3257523 44.1261017,67.4610169 L62.4542373,60.4716949 C63.5400452,60.0591038 64.4138027,59.2264039 64.8781356,58.1616949 C65.5908561,56.5714803 65.2885572,54.7096368 64.109322,53.4266102 C67.3028772,50.1765636 69.006167,45.7480101 68.8135593,41.1955932 C68.8135593,32.06 65.0501695,20.1137288 54.5762712,15.8259322 L54.5762712,11.2486441 L57.690678,8.75711864 C57.9720269,8.5318593 58.1357284,8.19092345 58.1355932,7.83050847 L58.1355932,1.18644068 C58.1355932,0.531187585 57.6044056,5.26885503e-16 56.9491525,5.26885503e-16 L53.3898305,5.26885503e-16 C53.0751926,6.71969218e-05 52.773466,0.125110911 52.5510169,0.347627119 L51.0169492,1.88169492 L49.4828814,0.347627119 C49.2604324,0.125110911 48.9587057,6.71969218e-05 48.6440678,0 L43.8983051,0 C43.5836672,6.71969218e-05 43.2819405,0.125110911 43.0594915,0.347627119 L41.5254237,1.88169492 L39.9913559,0.347627119 C39.7689069,0.125110911 39.4671803,6.71969218e-05 39.1525424,0 L35.5932203,0 C34.9379672,5.26885503e-16 34.4067797,0.531187585 34.4067797,1.18644068 L34.4067797,7.83050847 C34.4066444,8.19092345 34.570346,8.5318593 34.8516949,8.75711864 L37.9661017,11.2486441 L37.9661017,15.8259322 C27.4922034,20.1137288 23.7288136,32.0647458 23.7288136,41.1955932 C23.7066247,43.337913 24.039375,45.4691185 24.7135593,47.5027119 C24.2033898,47.4742373 23.689661,47.4576271 23.1771186,47.4576271 L20.1694915,47.4576271 C20.1694915,46.802374 19.6383039,46.2711864 18.9830508,46.2711864 L9.49152542,46.2711864 C8.83627233,46.2711864 8.30508475,46.802374 8.30508475,47.4576271 L0,47.4576271 L0,49.8305085 L8.30508475,49.8305085 L8.30508475,61.6949153 L0,61.6949153 L0,64.0677966 L8.30508475,64.0677966 C8.30508475,64.7230497 8.83627233,65.2542373 9.49152542,65.2542373 Z M36.779661,2.37288136 L38.6613559,2.37288136 L40.6866102,4.39813559 C41.1499151,4.8613006 41.9009324,4.8613006 42.3642373,4.39813559 L44.3894915,2.37288136 L48.1528814,2.37288136 L50.1781356,4.39813559 C50.6414405,4.8613006 51.3924578,4.8613006 51.8557627,4.39813559 L53.8810169,2.37288136 L55.7627119,2.37288136 L55.7627119,7.26101695 L52.9733898,9.49152542 L39.5666102,9.49152542 L36.779661,7.26101695 L36.779661,2.37288136 Z M52.2033898,11.8644068 L52.2033898,15.4237288 L40.3389831,15.4237288 L40.3389831,11.8644068 L52.2033898,11.8644068 Z M26.1016949,41.1955932 C26.1016949,32.6532203 29.5910169,21.4401695 39.3898305,17.7966102 L53.1525424,17.7966102 C62.9513559,21.4401695 66.440678,32.6532203 66.440678,41.1955932 C66.6400031,45.3231787 65.01426,49.3296136 61.9950847,52.1511864 C61.0875196,51.9079154 60.1247405,51.9742995 59.2591525,52.3398305 L51.5662712,55.6061017 C51.5887047,55.4614552 51.6033585,55.3157088 51.6101695,55.1694915 C51.6101695,52.8761057 49.7510129,51.0169492 47.4576271,51.0169492 L38.2544068,51.0169492 C37.3233219,51.0155498 36.4051907,50.7987068 35.5718644,50.3833898 C32.9968121,49.1030276 30.23879,48.229714 27.3961017,47.7945763 C26.5093512,45.7091942 26.0684477,43.4614351 26.1016949,41.1955932 Z M23.1771186,49.8305085 C27.1110516,49.8351147 30.9904551,50.7508537 34.5111864,52.5059322 C35.673744,53.0861814 36.9550885,53.3887493 38.2544068,53.3898305 L47.4576271,53.3898305 C48.3598186,53.3956573 49.1149124,54.0756748 49.214844,54.9723337 C49.3147755,55.8689925 48.7279242,56.6985683 47.8491525,56.9028814 C47.6937288,56.9171186 47.5418644,56.9491525 47.3840678,56.9491525 L33.220339,56.9491525 L33.220339,59.3220339 L47.3840678,59.3220339 C47.4089831,59.3220339 47.4327119,59.3220339 47.4576271,59.3220339 C47.4813559,59.3220339 47.5038983,59.3149153 47.5288136,59.3149153 C48.4704328,59.2997261 49.4002456,59.102725 50.2671186,58.7347458 L60.1869492,54.5240678 C60.659483,54.3223358 61.1939068,54.3223358 61.6664407,54.5240678 C62.1579356,54.731494 62.5435679,55.1304092 62.7342373,55.6286441 C62.9358319,56.1371957 62.9242866,56.7054795 62.7022034,57.2054237 C62.4926216,57.6898311 62.0965312,58.0692395 61.6035593,58.2577966 L43.2754237,65.2459322 C38.9688056,66.8956221 34.1957392,66.8442943 29.9255932,65.1023729 L20.1694915,61.0459322 L20.1694915,49.8305085 L23.1771186,49.8305085 Z M10.6779661,48.6440678 L17.7966102,48.6440678 L17.7966102,62.8813559 L10.6779661,62.8813559 L10.6779661,48.6440678 Z" id="Shape" fill="#FFFFFF" fill-rule="nonzero"></path>
                <rect id="Rectangle" fill="#32527C" x="13.0508475" y="58.1355932" width="2.37288136" height="2.37288136"></rect>
                <path d="M44.7798305,40.3389831 L45.0847458,40.3389831 L45.0847458,42.7118644 L47.4576271,42.7118644 L47.4576271,40.3389831 L47.7625424,40.3389831 C49.359648,40.3400763 50.7215313,39.1820694 50.9772052,37.6055612 C51.2328791,36.0290529 50.3067781,34.4999868 48.7911864,33.9962712 L44.5022034,32.5666102 C44.0900856,32.4314572 43.8375072,32.0166071 43.906652,31.5884408 C43.9757969,31.1602745 44.3461194,30.8460172 44.7798305,30.8474576 L47.7625424,30.8474576 C48.2495873,30.8481123 48.6440682,31.2431241 48.6440678,31.7301695 L48.6440678,32.5084746 L51.0169492,32.5084746 L51.0169492,31.7301695 C51.0156414,29.9331601 49.5595512,28.476539 47.7625424,28.4745763 L47.4576271,28.4745763 L47.4576271,26.1016949 L45.0847458,26.1016949 L45.0847458,28.4745763 L44.7798305,28.4745763 C43.1827249,28.473483 41.8208416,29.6314899 41.5651677,31.2079982 C41.3094938,32.7845064 42.2355948,34.3135725 43.7511864,34.8172881 L48.0401695,36.2469492 C48.4522873,36.3821022 48.7048657,36.7969522 48.6357209,37.2251185 C48.566576,37.6532848 48.1962535,37.9675422 47.7625424,37.9661017 L44.7798305,37.9661017 C44.2927856,37.9654471 43.8983046,37.5704352 43.8983051,37.0833898 L43.8983051,36.3050847 L41.5254237,36.3050847 L41.5254237,37.0833898 C41.5267315,38.8803992 42.9828217,40.3370203 44.7798305,40.3389831 Z" id="Path" fill="#FFFFFF"></path>
                <path d="M46.2711864,47.4576271 C53.4789705,47.4576271 59.3220339,41.6145637 59.3220339,34.4067797 C59.3220339,27.1989956 53.4789705,21.3559322 46.2711864,21.3559322 C39.0634024,21.3559322 33.220339,27.1989956 33.220339,34.4067797 C33.2288381,41.6110403 39.0669258,47.4491281 46.2711864,47.4576271 Z M46.2711864,23.7288136 C52.1684643,23.7288136 56.9491525,28.5095018 56.9491525,34.4067797 C56.9491525,40.3040575 52.1684643,45.0847458 46.2711864,45.0847458 C40.3739086,45.0847458 35.5932203,40.3040575 35.5932203,34.4067797 C35.599759,28.5122123 40.3766191,23.7353522 46.2711864,23.7288136 Z" id="Shape" fill="#FFFFFF" fill-rule="nonzero"></path>
            </g>
        </g>
    </g>
</svg>