<svg fill="#32527C" xmlns="http://www.w3.org/2000/svg" viewBox="0 0 64 64" x="0px" y="0px"><title>004_Startup_Icon_64x64</title><g><path d="M10,59h8a1,1,0,0,0,1-1v-.381l7.466,3.1a17.3,17.3,0,0,0,12.726.141L54.64,54.969a3.639,3.639,0,0,0,2.043-1.947,3.676,3.676,0,0,0-.648-3.991A13.872,13.872,0,0,0,60,38.722c0-7.7-3.172-17.769-12-21.383V13.481l2.625-2.1A1,1,0,0,0,51,10.6V5a1,1,0,0,0-1-1H47a1,1,0,0,0-.707.293L45,5.586,43.707,4.293A1,1,0,0,0,43,4H39a1,1,0,0,0-.707.293L37,5.586,35.707,4.293A1,1,0,0,0,35,4H32a1,1,0,0,0-1,1v5.6a1,1,0,0,0,.375.781L34,13.481v3.858c-8.828,3.614-12,13.687-12,21.383a16.355,16.355,0,0,0,.83,5.316C22.4,44.014,21.967,44,21.535,44H19a1,1,0,0,0-1-1H10a1,1,0,0,0-1,1H2v2H9V56H2v2H9A1,1,0,0,0,10,59ZM33,6h1.586l1.707,1.707a1,1,0,0,0,1.414,0L39.414,6h3.172l1.707,1.707a1,1,0,0,0,1.414,0L47.414,6H49v4.12L46.649,12h-11.3L33,10.12Zm13,8v3H36V14ZM24,38.722c0-7.2,2.941-16.651,11.2-19.722H46.8C55.059,22.071,58,31.522,58,38.722a11.856,11.856,0,0,1-3.747,9.234,3.559,3.559,0,0,0-2.306.159l-6.484,2.753A3.448,3.448,0,0,0,45.5,50.5,3.5,3.5,0,0,0,42,47H34.243a5.086,5.086,0,0,1-2.261-.534,23.446,23.446,0,0,0-6.891-2.182A13.7,13.7,0,0,1,24,38.722ZM21.535,46a21.469,21.469,0,0,1,9.553,2.255A7.078,7.078,0,0,0,34.243,49H42a1.5,1.5,0,0,1,.33,2.961c-.131.012-.259.039-.392.039H30v2H41.938c.021,0,.041,0,.062,0v0c.02,0,.039-.006.06-.006a6.161,6.161,0,0,0,2.308-.489l8.361-3.549a1.588,1.588,0,0,1,1.247,0,1.651,1.651,0,0,1,.9.931,1.716,1.716,0,0,1-.027,1.329,1.652,1.652,0,0,1-.926.887l-15.448,5.89a15.3,15.3,0,0,1-11.252-.121L19,55.453V46ZM11,45h6V57H11Z"></path><rect x="13" y="53" width="2" height="2"></rect><path d="M39.743,38H40v2h2V38h.257a2.743,2.743,0,0,0,.867-5.346l-3.615-1.205A.743.743,0,0,1,39.743,30h2.514a.744.744,0,0,1,.743.744V31.4h2v-.656A2.746,2.746,0,0,0,42.257,28H42V26H40v2h-.257a2.743,2.743,0,0,0-.867,5.346l3.615,1.205A.743.743,0,0,1,42.257,36H39.743A.744.744,0,0,1,39,35.256V34.6H37v.656A2.746,2.746,0,0,0,39.743,38Z"></path><path d="M41,44A11,11,0,1,0,30,33,11.013,11.013,0,0,0,41,44Zm0-20a9,9,0,1,1-9,9A9.01,9.01,0,0,1,41,24Z"></path></g></svg>